<?xml version="1.0" standalone="no"?>
<!DOCTYPE svg PUBLIC "-//W3C//DTD SVG 20010904//EN"
 "http://www.w3.org/TR/2001/REC-SVG-20010904/DTD/svg10.dtd">
<svg version="1.0" xmlns="http://www.w3.org/2000/svg"
 width="800.000000pt" height="800.000000pt" viewBox="0 0 800.000000 800.000000"
 preserveAspectRatio="xMidYMid meet">
<metadata>
Created by potrace 1.11, written by Peter Selinger 2001-2013
</metadata>
<g transform="translate(0.000000,800.000000) scale(0.100000,-0.100000)"
fill="#000000" stroke="none">
<path d="M4309 6495 c0 -3 -1 -18 -1 -35 0 -16 1 -43 1 -60 l1 -30 205 0 c113
0 205 -3 206 -7 1 -10 1 -983 0 -1005 -1 -15 -38 -16 -457 -17 -251 0 -459 -3
-462 -6 -4 -4 -7 -56 -7 -116 l-1 -109 171 -1 c93 -1 176 -1 183 0 10 2 13
-15 13 -61 -1 -35 0 -70 0 -78 0 -8 0 -35 0 -60 -1 -25 0 -78 1 -118 2 -39 1
-72 -2 -72 -3 0 -5 -25 -5 -55 0 -30 2 -55 5 -55 3 0 5 -50 5 -110 0 -61 -3
-110 -6 -110 -4 0 -3 -17 0 -37 4 -21 4 -55 1 -75 -4 -21 -4 -38 -1 -38 3 0 5
-20 3 -45 -4 -50 6 -46 -117 -46 -36 0 -280 0 -543 0 l-478 1 0 478 1 477 183
3 182 2 0 115 0 115 -67 0 c-457 3 -1396 1 -1399 -3 -3 -3 -5 -29 -4 -58 0
-30 1 -80 1 -111 l0 -58 183 0 182 0 0 -1197 -1 -1198 -175 -1 c-96 -1 -180
-2 -186 -3 -8 -1 -9 -14 -4 -39 3 -20 3 -49 -1 -65 -4 -15 -4 -27 -1 -27 4 0
7 -21 7 -47 l0 -48 733 -1 733 0 -3 115 -3 116 -180 0 -180 0 0 585 0 585 568
1 568 0 0 -90 c0 -50 0 -98 0 -106 1 -8 0 -35 0 -60 0 -25 -1 -53 0 -62 0 -10
0 -65 -1 -122 0 -57 0 -107 1 -112 1 -5 1 -25 0 -44 l-2 -35 -17 30 c-9 17
-17 32 -17 35 -1 3 -9 29 -18 59 -9 30 -17 72 -17 93 l0 38 -125 0 c-69 0
-125 -3 -126 -7 -1 -5 -2 -104 -3 -222 -1 -237 -3 -230 69 -247 17 -4 35 -10
40 -14 12 -9 187 -56 218 -59 5 -1 5 -5 2 -11 -6 -9 -10 -154 -5 -175 1 -5 2
-21 1 -35 l-1 -25 -172 0 c-95 1 -178 0 -183 -2 -7 -2 -10 -47 -10 -116 l0
-112 735 0 735 0 1 100 c0 55 -3 107 -7 115 -6 13 -35 15 -183 15 -112 0 -176
3 -177 10 -1 14 -1 227 0 240 1 6 27 18 59 28 68 22 202 87 202 99 0 4 6 8 13
8 26 0 143 136 184 215 56 108 78 186 99 345 4 30 8 651 8 1380 l1 1325 183 3
182 2 0 65 0 65 -760 0 c-418 0 -760 -2 -761 -5z"/>
<path d="M468 2314 c-109 -28 -185 -107 -216 -224 -15 -57 -6 -179 17 -232 49
-116 152 -182 281 -181 90 1 149 24 208 83 64 65 85 119 86 225 1 142 -12 180
-88 258 -67 70 -183 98 -288 71z m179 -57 c46 -25 85 -85 100 -157 3 -14 5
-61 5 -106 1 -138 -41 -225 -123 -258 -43 -17 -118 -19 -159 -4 -14 5 -26 9
-28 8 -8 -2 -53 53 -73 91 -21 39 -24 58 -24 164 0 102 3 127 22 167 23 50 57
85 101 104 38 16 141 11 179 -9z"/>
<path d="M1889 2319 c-122 -18 -222 -118 -244 -244 -14 -81 -3 -172 31 -242
50 -105 156 -162 292 -157 86 3 108 7 185 37 l57 22 0 117 c0 72 -4 118 -10
119 -5 0 -28 1 -50 1 -141 0 -146 -1 -146 -22 0 -16 7 -20 36 -21 19 -1 41 -1
48 0 29 4 38 -18 37 -89 -2 -81 -11 -93 -88 -109 -91 -20 -182 -7 -226 33 -23
21 -60 93 -67 131 -12 60 -10 165 3 217 29 113 93 165 203 165 94 0 158 -41
181 -118 9 -30 15 -35 34 -31 21 3 23 10 24 72 2 80 1 81 -106 106 -80 19
-131 22 -194 13z"/>
<path d="M2447 2300 c-66 -32 -89 -65 -95 -133 -4 -56 14 -108 47 -135 20 -16
116 -61 139 -65 42 -7 129 -40 149 -57 29 -23 38 -90 18 -129 -7 -15 -28 -35
-46 -43 -34 -17 -155 -22 -165 -7 -3 5 -14 9 -25 9 -24 0 -59 55 -59 93 0 22
-4 27 -25 27 -17 0 -25 -6 -26 -17 -1 -20 -1 -115 0 -124 3 -17 134 -43 216
-42 72 0 102 6 143 27 75 39 108 146 69 226 -24 49 -69 76 -194 116 -127 40
-153 59 -160 113 -10 71 47 121 137 120 78 -1 128 -33 147 -93 6 -19 17 -30
31 -33 24 -3 24 -3 24 57 0 78 -1 78 -34 86 -18 4 -37 9 -43 10 -98 26 -187
24 -248 -6z"/>
<path d="M3124 2308 c-214 -63 -282 -368 -121 -544 72 -80 218 -112 326 -72
55 21 151 105 151 132 0 9 4 16 8 16 10 0 32 88 36 145 4 52 -16 140 -42 191
-62 120 -211 175 -358 132z m193 -52 c74 -38 111 -134 108 -276 -6 -200 -111
-296 -277 -250 -44 13 -100 72 -119 126 -17 49 -17 224 0 282 14 49 85 127
122 135 43 9 134 0 166 -17z"/>
<path d="M5227 2318 c-57 -12 -110 -42 -150 -87 -67 -75 -82 -120 -81 -246 1
-150 78 -259 209 -297 150 -43 299 22 363 160 23 48 27 71 28 147 1 117 -26
188 -98 258 -53 52 -183 84 -271 65z m171 -64 c76 -50 107 -131 103 -274 -2
-93 -25 -165 -67 -205 -54 -53 -88 -60 -222 -43 -16 2 -73 56 -89 84 -23 42
-35 110 -34 191 2 134 46 225 125 259 42 18 148 11 184 -12z"/>
<path d="M0 2000 l0 -315 67 2 c38 0 70 2 73 2 3 1 6 10 7 21 2 17 -4 20 -40
20 l-42 0 2 247 c0 137 2 258 2 271 1 19 6 22 41 22 33 0 40 3 40 20 0 11 -3
20 -7 21 -5 0 -38 2 -76 2 l-67 2 0 -315z"/>
<path d="M950 2290 c0 -22 4 -25 37 -25 l38 0 0 -265 0 -265 -40 -5 c-27 -3
-40 -10 -40 -20 0 -8 3 -17 7 -20 4 -3 80 -5 170 -4 206 3 272 23 346 104 68
73 91 234 49 338 -31 74 -83 126 -154 155 -59 23 -118 30 -276 31 l-137 1 0
-25z m377 -55 c34 -18 58 -40 73 -68 25 -44 54 -151 39 -142 -5 4 -5 -3 -1
-16 10 -26 -8 -124 -30 -165 -20 -36 -70 -81 -107 -96 -14 -6 -63 -13 -108
-15 l-83 -5 1 271 2 270 82 -3 c67 -3 92 -9 132 -31z"/>
<path d="M3633 2310 c-10 -3 -19 -13 -21 -22 -2 -14 5 -18 30 -19 18 -1 38 -1
44 0 8 1 11 -74 10 -266 l-1 -268 -43 -3 c-33 -3 -42 -7 -40 -20 4 -26 9 -27
107 -26 123 2 120 2 117 22 -2 12 -14 18 -44 20 l-42 3 0 232 0 232 33 -37
c17 -21 43 -54 57 -74 14 -19 30 -41 35 -47 6 -7 30 -39 54 -72 25 -33 47 -62
51 -65 3 -3 30 -39 60 -80 53 -72 67 -90 101 -130 16 -20 58 -23 60 -5 0 5 1
139 2 298 l0 287 44 0 c35 0 43 3 43 19 0 24 -16 27 -124 25 -60 -1 -91 -6
-96 -14 -15 -24 0 -36 40 -32 l40 4 0 -221 c0 -141 -4 -221 -10 -221 -5 0 -10
4 -10 9 0 5 -6 16 -13 23 -7 7 -30 38 -52 68 -22 30 -46 61 -53 69 -8 8 -24
30 -38 50 -13 20 -63 88 -112 151 l-89 114 -61 1 c-33 0 -69 -2 -79 -5z"/>
<path d="M4649 2315 c0 0 -2 -10 -5 -22 -3 -17 1 -23 14 -24 9 0 31 -2 47 -2
l30 -2 1 -320 c2 -374 0 -381 -80 -392 -42 -5 -83 31 -77 70 0 4 -2 7 -6 8 -5
0 -16 2 -25 4 -10 2 -18 -2 -19 -8 -4 -46 -4 -79 1 -85 22 -33 145 -43 204
-18 83 35 89 62 90 435 l1 305 35 4 c41 4 37 2 42 26 3 19 -17 21 -253 21z"/>
<path d="M5707 2312 c-38 -7 -7 -48 33 -44 16 2 31 0 31 -5 5 -34 3 -517 -2
-525 -4 -6 -16 -8 -28 -5 -12 3 -28 -1 -36 -10 -34 -34 -18 -39 125 -38 101 0
105 1 108 23 3 20 -1 22 -37 22 l-40 0 -1 270 c0 212 3 271 12 269 44 -5 68 2
68 21 0 11 -6 20 -12 21 -41 3 -207 3 -221 1z"/>
<path d="M6034 2311 c-2 -2 -4 -14 -4 -26 0 -18 5 -20 36 -17 20 3 39 0 43 -6
3 -5 6 -126 5 -269 l-1 -258 -42 -3 c-37 -3 -42 -6 -39 -25 3 -21 8 -22 98
-22 111 -1 120 1 120 25 0 15 -9 20 -42 22 l-43 3 0 228 c0 125 1 227 3 227 5
0 42 -40 42 -46 0 -5 59 -83 71 -94 3 -3 61 -79 130 -170 156 -208 156 -207
182 -206 l22 1 2 270 c1 149 2 282 2 298 1 25 4 27 45 27 39 0 43 2 39 23 -4
21 -8 22 -106 20 -127 -2 -117 0 -117 -17 0 -20 16 -29 54 -30 l31 -1 0 -218
c1 -119 -2 -217 -5 -217 -3 0 -17 17 -32 38 -14 20 -34 46 -42 57 -16 20 -79
102 -126 165 -181 241 -162 223 -251 224 -39 1 -73 -1 -75 -3z"/>
<path d="M6789 2298 c-12 -21 4 -32 46 -30 l32 1 0 -269 0 -270 -37 0 c-29 0
-39 -5 -43 -20 -3 -11 0 -20 6 -21 39 -3 475 -4 490 0 15 3 17 13 15 70 -3 61
-5 66 -25 67 -24 1 -27 -6 -23 -58 1 -21 -3 -28 -17 -29 -19 -1 -236 0 -265 1
-15 0 -17 14 -16 129 l1 130 26 0 c67 3 99 3 137 0 40 -2 41 -3 41 -38 -1 -32
2 -36 23 -36 25 0 25 1 28 103 l3 102 -26 0 c-25 0 -27 -3 -27 -52 l-1 -26
-102 -1 -102 -1 0 105 -1 105 27 1 c28 0 201 0 238 -1 18 0 22 -7 25 -42 2
-35 7 -43 23 -43 22 0 33 41 27 105 l-4 35 -245 0 c-220 0 -246 -2 -254 -17z"/>
<path d="M7416 2304 c-7 -19 8 -32 44 -36 l35 -3 0 -265 0 -265 -39 -5 c-27
-3 -40 -10 -42 -22 -3 -22 3 -23 136 -23 111 0 115 1 118 23 3 20 -1 22 -43
22 l-46 0 3 123 3 122 45 1 c109 4 121 -7 208 -186 l51 -106 48 2 c26 1 51 3
56 3 4 1 7 10 7 21 0 13 -7 20 -20 20 -15 0 -32 25 -72 108 -56 113 -60 119
-97 144 l-23 16 35 10 c68 19 106 78 101 155 -3 53 -33 98 -83 126 -40 22 -53
23 -232 25 -128 1 -190 -2 -193 -10z m355 -50 c40 -20 56 -53 55 -111 -1 -56
-27 -103 -61 -111 -11 -2 -56 -5 -100 -6 l-80 -1 -3 122 -3 122 83 -1 c47 0
94 -6 109 -14z"/>
<path d="M7980 2290 c0 -11 5 -20 10 -20 6 0 10 9 10 20 0 11 -4 20 -10 20 -5
0 -10 -9 -10 -20z"/>
</g>
</svg>
